<svg width="78" height="78" viewBox="0 0 78 78" fill="none" xmlns="http://www.w3.org/2000/svg">
<path d="M2.21591 39.6761V37.0341C4.58807 37.0341 6.2429 36.5369 7.1804 35.5426C8.1321 34.5483 8.60795 32.8864 8.60795 30.5568V23.7386C8.60795 21.7784 8.79261 20.081 9.16193 18.6463C9.54545 17.2116 10.1634 16.0256 11.0156 15.0881C11.8679 14.1506 13.0043 13.4545 14.4247 13C15.8452 12.5455 17.5994 12.3182 19.6875 12.3182V16.4943C18.0398 16.4943 16.7401 16.75 15.7884 17.2614C14.8509 17.7727 14.1832 18.5682 13.7855 19.6477C13.402 20.7131 13.2102 22.0767 13.2102 23.7386V32.2614C13.2102 33.3693 13.0611 34.3778 12.7628 35.2869C12.4787 36.196 11.946 36.9773 11.1648 37.6307C10.3835 38.2841 9.26847 38.7884 7.8196 39.1435C6.38494 39.4986 4.51705 39.6761 2.21591 39.6761ZM19.6875 66.8636C17.5994 66.8636 15.8452 66.6364 14.4247 66.1818C13.0043 65.7273 11.8679 65.0312 11.0156 64.0938C10.1634 63.1562 9.54545 61.9702 9.16193 60.5355C8.79261 59.1009 8.60795 57.4034 8.60795 55.4432V48.625C8.60795 46.2955 8.1321 44.6335 7.1804 43.6392C6.2429 42.6449 4.58807 42.1477 2.21591 42.1477V39.5057C4.51705 39.5057 6.38494 39.6832 7.8196 40.0384C9.26847 40.3935 10.3835 40.8977 11.1648 41.5511C11.946 42.2045 12.4787 42.9858 12.7628 43.8949C13.0611 44.804 13.2102 45.8125 13.2102 46.9205V55.4432C13.2102 57.1051 13.402 58.4688 13.7855 59.5341C14.1832 60.5994 14.8509 61.3878 15.7884 61.8991C16.7401 62.4247 18.0398 62.6875 19.6875 62.6875V66.8636ZM2.21591 42.1477V37.0341H7.24432V42.1477H2.21591ZM75.0053 39.5057V42.1477C72.6332 42.1477 70.9712 42.6449 70.0195 43.6392C69.082 44.6335 68.6133 46.2955 68.6133 48.625V55.4432C68.6133 57.4034 68.4215 59.1009 68.038 60.5355C67.6687 61.9702 67.0579 63.1562 66.2056 64.0938C65.3533 65.0312 64.217 65.7273 62.7965 66.1818C61.3761 66.6364 59.6218 66.8636 57.5337 66.8636V62.6875C59.1815 62.6875 60.4741 62.4247 61.4116 61.8991C62.3633 61.3878 63.0309 60.5994 63.4144 59.5341C63.8121 58.4688 64.011 57.1051 64.011 55.4432V46.9205C64.011 45.8125 64.1531 44.804 64.4371 43.8949C64.7354 42.9858 65.2752 42.2045 66.0565 41.5511C66.8377 40.8977 67.9457 40.3935 69.3803 40.0384C70.8292 39.6832 72.7042 39.5057 75.0053 39.5057ZM57.5337 12.3182C59.6218 12.3182 61.3761 12.5455 62.7965 13C64.217 13.4545 65.3533 14.1506 66.2056 15.0881C67.0579 16.0256 67.6687 17.2116 68.038 18.6463C68.4215 20.081 68.6133 21.7784 68.6133 23.7386V30.5568C68.6133 32.8864 69.082 34.5483 70.0195 35.5426C70.9712 36.5369 72.6332 37.0341 75.0053 37.0341V39.6761C72.7042 39.6761 70.8292 39.4986 69.3803 39.1435C67.9457 38.7884 66.8377 38.2841 66.0565 37.6307C65.2752 36.9773 64.7354 36.196 64.4371 35.2869C64.1531 34.3778 64.011 33.3693 64.011 32.2614V23.7386C64.011 22.0767 63.8121 20.7131 63.4144 19.6477C63.0309 18.5682 62.3633 17.7727 61.4116 17.2614C60.4741 16.75 59.1815 16.4943 57.5337 16.4943V12.3182ZM75.0053 37.0341V42.1477H69.9769V37.0341H75.0053Z" fill="white"/>
<rect x="21" y="20" width="10" height="10.6849" fill="#C465FE"/>
<rect x="34" y="20" width="10" height="10.6849" fill="#658FFE"/>
<rect x="21" y="36.0274" width="10" height="10.6849" fill="#EBB25E"/>
<rect x="47" y="20" width="10" height="10.6849" fill="#EBB25E"/>
<rect x="34" y="36.0274" width="10" height="10.6849" fill="#C465FE"/>
<rect x="34" y="52.0548" width="10" height="10.6849" fill="#658FFE"/>
</svg>
